<svg version="1.0"
	 id="svg11300" xmlns:sodipodi="http://sodipodi.sourceforge.net/DTD/sodipodi-0.dtd" xmlns:inkscape="http://www.inkscape.org/namespaces/inkscape" xmlns:svg="http://www.w3.org/2000/svg" xmlns:rdf="http://www.w3.org/1999/02/22-rdf-syntax-ns#" xmlns:dc="http://purl.org/dc/elements/1.1/" xmlns:cc="http://creativecommons.org/ns#" inkscape:export-ydpi="90.000000" sodipodi:docname="blender.svg" inkscape:version="0.48.1 r9760" inkscape:export-filename="/home/jimmac/Desktop/wi-fi.png" inkscape:output_extension="org.inkscape.output.svg.inkscape" sodipodi:version="0.32" inkscape:export-xdpi="90.000000"
	 xmlns="http://www.w3.org/2000/svg" xmlns:xlink="http://www.w3.org/1999/xlink" x="0px" y="0px" width="245.25px"
	 height="199.25px" viewBox="0 0 245.25 199.25" enable-background="new 0 0 245.25 199.25" xml:space="preserve">
<g id="layer1" inkscape:label="artwork" inkscape:groupmode="layer">
	<g id="g9786" transform="matrix(5.2091874,0,0,5.2091874,-2775.9222,-186.77589)">
		<path id="path9788" inkscape:connector-curvature="0" fill="#0D528B" d="M557.525,57.43c0.087-1.562,0.853-2.94,2.007-3.917l0,0
			c1.134-0.96,2.658-1.545,4.323-1.545l0,0c1.663,0,3.188,0.586,4.322,1.545l0,0c1.154,0.977,1.921,2.355,2.008,3.917
			c0.088,1.607-0.557,3.1-1.69,4.206l0,0c-1.155,1.126-2.8,1.833-4.64,1.833l0,0c-1.841,0-3.487-0.707-4.641-1.833l0,0
			C558.08,60.531,557.436,59.037,557.525,57.43"/>
		<path id="path9790" inkscape:connector-curvature="0" fill="#F5792A" d="M547.442,60.594c0.01,0.61,0.207,1.798,0.499,2.729l0,0
			c0.615,1.964,1.659,3.784,3.112,5.387l0,0c1.491,1.645,3.324,2.969,5.444,3.908l0,0c2.23,0.987,4.644,1.492,7.149,1.487l0,0
			c2.506-0.005,4.92-0.517,7.148-1.511l0,0c2.118-0.948,3.951-2.275,5.441-3.925l0,0c1.451-1.609,2.492-3.432,3.109-5.398l0,0
			c0.311-0.994,0.505-2.001,0.585-3.013l0,0c0.078-0.996,0.044-1.995-0.097-2.991l0,0c-0.276-1.944-0.949-3.767-1.983-5.43
			c-0.949-1.527-2.169-2.864-3.62-3.99l0,0l0.002-0.002l0,0l-14.645-11.247l0,0c-0.013-0.01-0.025-0.02-0.038-0.03l0,0
			c-0.963-0.737-2.579-0.734-3.635,0.005l0,0c-1.07,0.748-1.19,1.983-0.24,2.765l0,0l-0.003,0.002l0,0l6.109,4.969l-18.622,0.02l0,0
			c-0.009,0-0.017,0-0.025,0l0,0c-1.539,0.001-3.017,1.013-3.312,2.288l0,0c-0.298,1.301,0.747,2.379,2.346,2.385l0,0l-0.001,0.005
			l0,0l9.437-0.018l-16.843,12.927l0,0c-0.021,0.016-0.044,0.032-0.065,0.048l0,0c-1.587,1.216-2.101,3.24-1.101,4.521l0,0
			c1.017,1.303,3.175,1.303,4.781,0.006l0,0l9.191-7.521C547.566,58.968,547.433,59.984,547.442,60.594L547.442,60.594z
			 M571.062,63.992c-1.894,1.932-4.544,3.025-7.414,3.03l0,0c-2.872,0.006-5.523-1.079-7.417-3.006l0,0
			c-0.926-0.94-1.606-2.018-2.026-3.17l0,0c-0.411-1.13-0.57-2.329-0.465-3.539l0,0c0.102-1.185,0.452-2.312,1.016-3.335l0,0
			c0.553-1.004,1.314-1.911,2.253-2.679l0,0c1.841-1.501,4.183-2.312,6.636-2.316l0,0c2.453-0.004,4.796,0.801,6.637,2.297l0,0
			c0.939,0.764,1.699,1.668,2.252,2.67l0,0c0.564,1.021,0.914,2.147,1.017,3.332l0,0c0.105,1.209-0.055,2.409-0.466,3.54l0,0
			C572.666,61.969,571.986,63.049,571.062,63.992"/>
	</g>
</g>
</svg>
