<svg version="1.0" id="Calque_1" xmlns="http://www.w3.org/2000/svg" xmlns:xlink="http://www.w3.org/1999/xlink" x="0px" y="0px"
	 width="96px" height="92.876px" viewBox="13.626 31.082 96 92.876" style="enable-background:new 13.626 31.082 96 92.876;"
	 xml:space="preserve">
<style type="text/css">
<![CDATA[
	.st0{fill:#0868AC;}
]]>
</style>
<path class="st0" d="M21.143,54.158c-8.335,11.98-7.298,27.566-0.931,40.296c0.151,0.305,0.311,0.605,0.467,0.905
	c0.1,0.19,0.193,0.386,0.298,0.573c0.059,0.112,0.124,0.223,0.186,0.33c0.108,0.203,0.22,0.396,0.332,0.594
	c0.197,0.349,0.4,0.695,0.607,1.042c0.115,0.19,0.229,0.381,0.347,0.571c0.229,0.371,0.465,0.737,0.706,1.104
	c0.1,0.156,0.197,0.313,0.3,0.464c0.332,0.495,0.672,0.989,1.021,1.475c0.009,0.013,0.019,0.026,0.029,0.039
	c0.056,0.077,0.116,0.153,0.173,0.231c0.303,0.418,0.615,0.83,0.931,1.238c0.116,0.148,0.233,0.298,0.351,0.446
	c0.282,0.354,0.569,0.706,0.86,1.058c0.109,0.131,0.219,0.264,0.329,0.393c0.392,0.461,0.791,0.92,1.198,1.369
	c0.008,0.008,0.018,0.018,0.024,0.025c0.018,0.02,0.032,0.031,0.047,0.051c0.397,0.435,0.806,0.859,1.218,1.284
	c0.128,0.132,0.259,0.264,0.391,0.394c0.32,0.322,0.645,0.639,0.973,0.954c0.134,0.127,0.266,0.257,0.398,0.378
	c0.438,0.413,0.881,0.818,1.333,1.214c0.008,0.007,0.014,0.013,0.021,0.017c0.077,0.068,0.156,0.133,0.232,0.198
	c0.397,0.345,0.803,0.687,1.211,1.022c0.166,0.135,0.334,0.267,0.501,0.4c0.334,0.267,0.671,0.53,1.01,0.789
	c0.18,0.137,0.359,0.273,0.54,0.41c0.374,0.275,0.752,0.547,1.133,0.813c0.139,0.101,0.273,0.198,0.412,0.293
	c0.039,0.027,0.074,0.055,0.113,0.081c0.361,0.249,0.731,0.488,1.101,0.728c0.158,0.105,0.315,0.215,0.476,0.317
	c0.566,0.358,1.142,0.713,1.723,1.055c0.157,0.091,0.317,0.179,0.476,0.269c0.428,0.247,0.857,0.488,1.293,0.726
	c0.235,0.127,0.478,0.246,0.715,0.368c0.308,0.161,0.613,0.324,0.926,0.48c0.07,0.035,0.144,0.069,0.214,0.104
	c0.125,0.061,0.252,0.119,0.378,0.183c0.484,0.231,0.973,0.459,1.467,0.679c0.104,0.047,0.206,0.093,0.31,0.139
	c0.565,0.247,1.135,0.484,1.71,0.711c0.139,0.057,0.277,0.109,0.417,0.164c0.532,0.205,1.071,0.407,1.613,0.598
	c0.068,0.024,0.135,0.047,0.203,0.07c0.594,0.208,1.194,0.4,1.799,0.589c0.145,0.042,0.289,0.088,0.435,0.13
	c0.615,0.186,1.224,0.407,1.858,0.524c40.31,7.351,52.019-24.224,52.019-24.224c-9.834,12.812-27.29,16.191-43.829,12.429
	c-0.626-0.142-1.234-0.337-1.846-0.518c-0.155-0.046-0.308-0.093-0.46-0.14c-0.597-0.183-1.189-0.375-1.777-0.578
	c-0.081-0.029-0.162-0.059-0.244-0.088c-0.527-0.186-1.049-0.381-1.567-0.581c-0.146-0.059-0.293-0.114-0.439-0.173
	c-0.569-0.225-1.134-0.459-1.692-0.703c-0.114-0.049-0.225-0.101-0.338-0.149c-0.479-0.218-0.954-0.437-1.427-0.664
	c-0.137-0.065-0.273-0.13-0.413-0.198c-0.371-0.181-0.737-0.373-1.104-0.562c-0.245-0.129-0.494-0.251-0.737-0.386
	c-0.447-0.239-0.886-0.488-1.323-0.742c-0.147-0.083-0.298-0.163-0.446-0.249c-0.581-0.342-1.155-0.696-1.724-1.056
	c-0.156-0.1-0.31-0.207-0.465-0.31c-0.412-0.266-0.822-0.536-1.226-0.815c-0.134-0.09-0.264-0.188-0.396-0.277
	c-0.39-0.275-0.775-0.555-1.159-0.838c-0.174-0.129-0.345-0.26-0.514-0.389c-0.351-0.269-0.7-0.539-1.046-0.817
	c-0.156-0.124-0.313-0.249-0.466-0.374c-0.439-0.361-0.874-0.725-1.303-1.098c-0.045-0.039-0.095-0.078-0.143-0.12
	c-0.464-0.407-0.92-0.825-1.37-1.245c-0.131-0.125-0.258-0.246-0.386-0.371c-0.333-0.317-0.661-0.637-0.983-0.965
	c-0.13-0.129-0.259-0.256-0.386-0.385c-0.41-0.42-0.813-0.846-1.208-1.277c-0.02-0.021-0.04-0.041-0.06-0.063
	c-0.417-0.456-0.825-0.923-1.225-1.394c-0.108-0.13-0.213-0.254-0.32-0.381c-0.298-0.359-0.594-0.723-0.882-1.09
	c-0.108-0.131-0.216-0.267-0.323-0.402c-0.347-0.45-0.686-0.899-1.018-1.355c-9.183-12.524-12.481-29.8-5.143-43.986"/>
<path class="st0" d="M47.016,44.065c-6.027,8.675-5.7,20.286-0.998,29.46c0.788,1.538,1.675,3.03,2.666,4.451
	c0.903,1.294,1.904,2.834,3.103,3.874c0.435,0.479,0.889,0.945,1.353,1.404c0.117,0.119,0.237,0.234,0.356,0.352
	c0.45,0.437,0.908,0.866,1.382,1.284c0.02,0.015,0.037,0.034,0.057,0.049c0.005,0.005,0.01,0.007,0.013,0.013
	c0.523,0.459,1.064,0.9,1.614,1.335c0.122,0.093,0.243,0.19,0.366,0.286c0.551,0.422,1.112,0.837,1.688,1.232
	c0.018,0.013,0.032,0.024,0.05,0.037c0.254,0.176,0.513,0.339,0.77,0.508c0.123,0.08,0.241,0.166,0.365,0.241
	c0.411,0.264,0.828,0.521,1.251,0.767c0.061,0.037,0.119,0.068,0.178,0.103c0.364,0.21,0.734,0.417,1.105,0.618
	c0.13,0.072,0.262,0.137,0.394,0.205c0.256,0.134,0.513,0.271,0.773,0.4c0.039,0.019,0.079,0.036,0.117,0.053
	c0.531,0.262,1.066,0.514,1.614,0.752c0.116,0.052,0.237,0.098,0.356,0.146c0.437,0.186,0.879,0.367,1.322,0.537
	c0.188,0.071,0.379,0.14,0.566,0.208c0.403,0.149,0.808,0.286,1.215,0.423c0.185,0.059,0.365,0.119,0.55,0.176
	c0.579,0.18,1.152,0.407,1.756,0.508c31.123,5.156,38.309-18.807,38.309-18.807c-6.478,9.329-19.021,13.779-32.405,10.306
	c-0.595-0.156-1.181-0.327-1.763-0.511c-0.178-0.054-0.353-0.112-0.529-0.171c-0.414-0.134-0.825-0.275-1.233-0.425
	c-0.187-0.068-0.373-0.137-0.557-0.207c-0.446-0.171-0.889-0.35-1.327-0.535c-0.119-0.051-0.24-0.098-0.357-0.151
	c-0.549-0.239-1.09-0.49-1.623-0.754c-0.275-0.135-0.545-0.276-0.814-0.415c-0.156-0.081-0.313-0.161-0.47-0.242
	c-0.347-0.188-0.691-0.383-1.03-0.581c-0.081-0.046-0.165-0.09-0.247-0.139c-0.421-0.247-0.836-0.501-1.247-0.762
	c-0.127-0.081-0.249-0.169-0.376-0.252c-0.271-0.176-0.542-0.354-0.809-0.534c-0.573-0.396-1.132-0.811-1.682-1.23
	c-0.127-0.101-0.254-0.198-0.379-0.298c-5.858-4.626-10.503-10.947-12.711-18.115c-2.313-7.435-1.814-15.779,2.194-22.551"/>
<path class="st0" d="M68.777,36.524c-3.553,5.229-3.902,11.725-1.437,17.5c2.601,6.131,7.929,10.94,14.147,13.22
	c0.256,0.096,0.513,0.181,0.772,0.269c0.113,0.035,0.226,0.074,0.341,0.107c0.366,0.115,0.729,0.249,1.108,0.32
	c17.185,3.32,21.846-8.818,23.087-10.605c-4.083,5.879-10.945,7.29-19.364,5.247c-0.665-0.162-1.396-0.402-2.037-0.629
	c-0.822-0.293-1.632-0.627-2.419-1.005c-1.495-0.719-2.92-1.59-4.241-2.588c-7.533-5.717-12.214-16.621-7.298-25.502"/>
</svg>
