<svg version="1.0" id="Layer_3" xmlns="http://www.w3.org/2000/svg" xmlns:xlink="http://www.w3.org/1999/xlink" x="0px" y="0px"
	 width="560px" height="296px" viewBox="116.5 158.5 560 296" style="enable-background:new 116.5 158.5 560 296;"
	 xml:space="preserve">
<style type="text/css">
<![CDATA[
	.st0{fill:url(#SVGID_1_);}
	.st1{fill:#FFFFFF;}
	.st2{fill:#6682BA;}
	.st3{fill:#00000E;}
]]>
</style>
<radialGradient id="SVGID_1_" cx="259.5193" cy="389.5957" r="363.0569" gradientTransform="matrix(1 0 0 -1 26.5 601.7871)" gradientUnits="userSpaceOnUse">
	<stop  offset="0" style="stop-color:#FFFFFF"/>
	<stop  offset="0.5" style="stop-color:#4D6998"/>
	<stop  offset="1" style="stop-color:#1D1D1B"/>
</radialGradient>
<ellipse class="st0" cx="396.5" cy="306.5" rx="276.479" ry="145.439"/>
<ellipse class="st2" cx="396.5" cy="306.5" rx="265.68" ry="134.641"/>
<g>
	<path class="st1" d="M450.318,350.018l13.18-67.825c2.974-15.309,0.5-26.729-7.351-33.943
		c-7.603-6.982-20.511-10.376-39.461-10.376h-22.822l6.532-33.606c0.246-1.267-0.088-2.577-0.907-3.572
		c-0.82-0.995-2.044-1.572-3.334-1.572h-31.5c-2.067,0-3.846,1.465-4.241,3.496l-13.994,72.006
		c-1.273-8.102-4.408-15.068-9.428-20.813c-9.238-10.576-23.854-15.938-43.44-15.938h-61.055c-2.068,0-3.847,1.465-4.24,3.496
		l-28.328,145.75c-0.246,1.268,0.086,2.576,0.907,3.57c0.819,0.996,2.043,1.572,3.333,1.572h31.75c2.067,0,3.846-1.466,4.239-3.494
		l6.853-35.256h23.634c12.404,0,22.82-1.344,30.957-3.992c8.317-2.705,15.972-7.291,22.721-13.607
		c5.451-5.01,9.957-10.617,13.424-16.668l-5.661,29.125c-0.245,1.268,0.087,2.576,0.907,3.57c0.821,0.996,2.043,1.572,3.333,1.572
		h31.5c2.068,0,3.847-1.466,4.241-3.494l15.547-80.005h21.614c9.21,0,11.906,1.834,12.639,2.623
		c0.667,0.719,2.053,3.254,0.499,11.245l-12.53,64.488c-0.246,1.267,0.087,2.575,0.907,3.571c0.82,0.994,2.043,1.572,3.333,1.572h32
		C448.145,353.514,449.923,352.047,450.318,350.018z M304.28,293.977c-1.979,10.167-5.707,17.419-11.083,21.558
		c-5.461,4.205-14.197,6.338-25.966,6.338h-14.07l10.176-52.36h18.191c13.366,0,18.751,2.857,20.913,5.253
		C305.438,278.089,306.073,284.733,304.28,293.977z"/>
	<path class="st1" d="M585.024,253.812c-9.239-10.576-23.854-15.938-43.439-15.938h-61.057c-2.067,0-3.846,1.465-4.24,3.496
		L447.96,387.12c-0.246,1.267,0.087,2.575,0.906,3.571c0.821,0.994,2.043,1.572,3.334,1.572h31.75c2.067,0,3.847-1.467,4.239-3.496
		l6.854-35.254h23.634c12.403,0,22.819-1.345,30.957-3.994c8.317-2.703,15.973-7.291,22.721-13.606
		c5.628-5.173,10.261-10.979,13.771-17.257c3.503-6.271,6.021-13.271,7.484-20.802C597.22,279.284,594.33,264.466,585.024,253.812z
		 M552.096,293.977c-1.979,10.167-5.707,17.419-11.082,21.558c-5.462,4.205-14.198,6.338-25.967,6.338h-14.072l10.177-52.36h18.192
		c13.366,0,18.751,2.857,20.913,5.253C553.254,278.089,553.89,284.733,552.096,293.977z"/>
</g>
<g>
	<path class="st3" d="M281.528,265.193c12.063,0,20.103,2.227,24.121,6.68c4.016,4.453,4.973,12.098,2.871,22.93
		c-2.195,11.281-6.422,19.333-12.688,24.157c-6.267,4.823-15.801,7.233-28.603,7.233h-19.313l11.854-61L281.528,265.193
		L281.528,265.193z M204.169,387.943h31.75l7.531-38.75h27.194c12,0,21.871-1.258,29.621-3.782
		c7.75-2.519,14.793-6.746,21.133-12.681c5.32-4.891,9.625-10.283,12.922-16.184c3.293-5.895,5.633-12.402,7.017-19.519
		c3.358-17.277,0.823-30.734-7.599-40.375s-21.819-14.461-40.188-14.461h-61.055L204.169,387.943z"/>
	<path class="st3" d="M364.655,203.443h31.5l-7.531,38.75h28.063c17.656,0,29.836,3.082,36.539,9.238
		c6.703,6.16,8.711,16.141,6.031,29.938l-13.181,67.824h-32l12.531-64.488c1.426-7.336,0.902-12.34-1.574-15.008
		c-2.476-2.668-7.746-4.004-15.805-4.004h-25.176l-16.228,83.5h-31.5L364.655,203.443z"/>
	<path class="st3" d="M529.344,265.193c12.063,0,20.102,2.227,24.121,6.68c4.017,4.453,4.974,12.098,2.871,22.93
		c-2.195,11.281-6.422,19.333-12.688,24.157c-6.266,4.823-15.801,7.233-28.602,7.233h-19.313l11.854-61L529.344,265.193
		L529.344,265.193z M451.985,387.943h31.75l7.53-38.75h27.194c12,0,21.871-1.258,29.621-3.782
		c7.75-2.519,14.793-6.746,21.134-12.681c5.319-4.891,9.625-10.283,12.922-16.184c3.293-5.895,5.633-12.402,7.016-19.519
		c3.359-17.277,0.825-30.734-7.598-40.375c-8.422-9.641-21.82-14.461-40.188-14.461h-61.054L451.985,387.943z"/>
</g>
</svg>
