<svg version="1.1" id="Calque_1" xmlns="http://www.w3.org/2000/svg" xmlns:xlink="http://www.w3.org/1999/xlink" x="0px" y="0px"
	 width="524.411px" height="619.317px" viewBox="0 0 524.411 619.317" enable-background="new 0 0 524.411 619.317"
	 xml:space="preserve">
<g>
	<defs>
		<rect id="SVGID_1_" width="524.411" height="619.317"/>
	</defs>
	<clipPath id="SVGID_2_">
		<use xlink:href="#SVGID_1_"  overflow="visible"/>
	</clipPath>
	<path clip-path="url(#SVGID_2_)" d="M133.28,0.011c-3.18,0.096-6.604,1.252-10.487,4.272c-9.516-3.614-18.74-4.87-26.988,2.487
		C83.068,5.143,78.928,8.5,75.791,12.421c-2.796-0.057-20.925-2.831-29.237,9.384C25.662,19.371,19.058,33.91,26.539,47.466
		c-4.266,6.506-8.685,12.935,1.291,25.337c-3.529,6.908-1.341,14.401,6.974,23.471c-2.195,9.712,2.12,16.563,9.855,21.902
		c-1.447,13.289,12.372,21.016,16.499,23.77c1.584,7.742,4.887,15.049,20.672,19.089c2.603,11.541,12.089,13.532,21.276,15.954
		c-30.363,17.384-56.399,40.257-56.223,96.377l-4.449,7.815C7.621,302.036-23.702,369.061,25.278,423.54
		c3.2,17.054,8.565,29.303,13.342,42.858c7.147,54.629,53.78,80.207,66.081,83.233c18.024,13.522,37.219,26.354,63.196,35.341
		c24.488,24.875,51.016,34.356,77.692,34.342c0.391,0,0.789,0.006,1.18,0c26.675,0.016,53.205-9.464,77.691-34.342
		c25.978-8.987,45.173-21.818,63.198-35.341c12.3-3.026,58.933-28.604,66.08-83.233c4.774-13.556,10.142-25.805,13.341-42.858
		c48.981-54.483,17.66-121.513-17.157-142.367l-4.454-7.813c0.177-56.116-25.86-78.989-56.223-96.377
		c9.187-2.422,18.673-4.414,21.275-15.953c15.785-4.042,19.089-11.349,20.672-19.091c4.128-2.753,17.946-10.48,16.5-23.77
		c7.734-5.339,12.049-12.191,9.855-21.901c8.315-9.07,10.502-16.563,6.974-23.472c9.979-12.398,5.551-18.825,1.29-25.332
		c7.476-13.556,0.88-28.095-20.021-25.66c-8.311-12.214-26.434-9.441-29.236-9.384c-3.137-3.92-7.273-7.279-20.012-5.651
		c-8.248-7.357-17.473-6.101-26.987-2.487c-11.299-8.781-18.773-1.743-27.313,0.917c-13.677-4.401-16.806,1.629-23.525,4.084
		c-14.917-3.104-19.45,3.655-26.602,10.791l-8.318-0.163c-22.499,13.059-33.675,39.653-37.637,53.323
		c-3.965-13.674-15.117-40.266-37.61-53.323l-8.318,0.163c-7.16-7.136-11.695-13.895-26.61-10.791
		c-6.72-2.455-9.839-8.485-23.526-4.084c-5.604-1.746-10.76-5.376-16.828-5.192L133.28,0.011z"/>
	<path clip-path="url(#SVGID_2_)" fill="#8CC04B" d="M88.484,57.466c59.692,30.311,94.394,54.833,113.404,75.716
		c-9.735,38.435-60.524,40.189-79.094,39.111c3.801-1.743,6.974-3.832,8.099-7.04c-4.66-3.261-21.183-0.344-32.718-6.727
		c4.43-0.905,6.504-1.785,8.575-5.006c-10.897-3.423-22.637-6.375-29.541-12.046c3.727,0.047,7.204,0.821,12.072-2.503
		c-9.763-5.182-20.179-9.287-28.271-17.208c5.046-0.121,10.487-0.05,12.069-1.877c-8.933-5.451-16.472-11.516-22.713-18.147
		c7.065,0.839,10.047,0.117,11.755-1.096c-6.753-6.811-15.302-12.566-19.377-20.962c5.244,1.781,10.042,2.462,13.502-0.156
		c-2.296-5.101-12.129-8.108-17.791-20.025c5.522,0.527,11.377,1.186,12.549,0c-2.564-10.283-6.96-16.064-11.273-22.054
		c11.816-0.172,29.717,0.045,28.907-0.939l-7.305-7.353c11.54-3.06,23.35,0.492,31.923,3.129c3.85-2.991-0.068-6.775-4.765-10.638
		c9.809,1.291,18.672,3.512,26.682,6.572c4.282-3.808-2.778-7.615-6.194-11.421c15.154,2.831,21.575,6.81,27.954,10.794
		c4.63-4.37,0.266-8.084-2.859-11.889c11.426,4.168,17.312,9.549,23.507,14.862c2.101-2.793,5.337-4.839,1.43-11.577
		c8.111,4.606,14.22,10.033,18.742,16.113c5.018-3.148,2.991-7.453,3.017-11.42c8.43,6.755,13.781,13.944,20.331,20.963
		c1.318-0.945,2.474-4.155,3.493-9.23c20.112,19.22,48.532,67.629,7.306,86.824c-35.087-28.503-76.99-49.221-123.428-64.762
		L88.484,57.466z"/>
	<path clip-path="url(#SVGID_2_)" fill="#8CC04B" d="M405.208,57.466c-59.686,30.316-94.386,54.829-113.396,75.716
		c9.734,38.435,60.524,40.189,79.096,39.111c-3.803-1.743-6.975-3.832-8.099-7.04c4.658-3.261,21.183-0.344,32.718-6.727
		c-4.432-0.905-6.504-1.785-8.577-5.006c10.898-3.423,22.638-6.375,29.543-12.046c-3.726,0.047-7.207,0.821-12.072-2.503
		c9.762-5.182,20.179-9.287,28.271-17.208c-5.047-0.121-10.487-0.05-12.072-1.877c8.938-5.451,16.475-11.516,22.714-18.147
		c-7.062,0.839-10.045,0.117-11.754-1.096c6.755-6.811,15.302-12.566,19.378-20.962c-5.244,1.781-10.042,2.462-13.501-0.156
		c2.295-5.101,12.127-8.108,17.788-20.025c-5.52,0.527-11.375,1.186-12.547,0c2.567-10.287,6.965-16.068,11.276-22.059
		c-11.815-0.172-29.717,0.046-28.907-0.938l7.308-7.352c-11.543-3.061-23.351,0.49-31.926,3.128
		c-3.848-2.992,0.069-6.776,4.765-10.637c-9.808,1.289-18.672,3.51-26.683,6.57c-4.28-3.806,2.78-7.613,6.195-11.42
		c-15.153,2.831-21.573,6.811-27.954,10.794c-4.63-4.37-0.265-8.085,2.858-11.889c-11.425,4.168-17.311,9.549-23.506,14.861
		c-2.101-2.792-5.336-4.838-1.43-11.577c-8.112,4.607-14.221,10.034-18.741,16.114c-5.019-3.148-2.99-7.453-3.018-11.419
		c-8.432,6.754-13.782,13.942-20.33,20.961c-1.319-0.945-2.475-4.155-3.494-9.229c-20.113,19.219-48.534,67.63-7.307,86.824
		c35.068-28.509,76.971-49.226,123.41-64.767L405.208,57.466z"/>
	<path clip-path="url(#SVGID_2_)" fill="#C7053D" d="M322.296,448.844c0.208,35.865-31.636,65.094-71.123,65.283
		c-39.487,0.188-71.668-28.733-71.876-64.598c0-0.229,0-0.456,0-0.686c-0.207-35.864,31.635-65.094,71.124-65.283
		c39.487-0.188,71.667,28.732,71.875,64.599C322.297,448.388,322.297,448.616,322.296,448.844"/>
	<path clip-path="url(#SVGID_2_)" fill="#C7053D" d="M209.425,263.33c29.627,19.118,34.968,62.455,11.93,96.793
		c-23.038,34.339-65.732,46.68-95.357,27.561c-29.626-19.117-34.967-62.456-11.928-96.794
		C137.107,256.549,179.8,244.21,209.425,263.33"/>
	<path clip-path="url(#SVGID_2_)" fill="#C7053D" d="M289.39,259.868c-29.627,19.118-34.968,62.457-11.929,96.793
		C300.5,391,343.19,403.34,372.816,384.222c29.627-19.118,34.968-62.456,11.93-96.795
		C361.709,253.088,319.016,240.749,289.39,259.868"/>
	<path clip-path="url(#SVGID_2_)" fill="#C7053D" d="M61.358,294.586c31.985-8.445,10.798,130.341-15.226,118.953
		C17.503,390.859,8.282,324.439,61.358,294.586"/>
	<path clip-path="url(#SVGID_2_)" fill="#C7053D" d="M431,292.855c-31.989-8.442-10.798,130.348,15.229,118.959
		C474.854,389.134,484.076,322.708,431,292.855"/>
	<path clip-path="url(#SVGID_2_)" fill="#C7053D" d="M322.322,189.505c55.199-9.181,101.131,23.122,99.278,82.081
		C419.783,294.188,301.984,192.87,322.322,189.505"/>
	<path clip-path="url(#SVGID_2_)" fill="#C7053D" d="M169.807,187.774c-55.204-9.181-101.131,23.129-99.277,82.082
		C72.344,292.457,190.145,191.14,169.807,187.774"/>
	<path clip-path="url(#SVGID_2_)" fill="#C7053D" d="M249.1,174.025c-32.945-0.845-64.564,24.084-64.641,38.543
		c-0.092,17.569,26.048,35.558,64.865,36.014c39.641,0.279,64.934-14.399,65.062-32.531c0.145-20.542-36.052-42.344-65.286-42.028
		V174.025z"/>
	<path clip-path="url(#SVGID_2_)" fill="#C7053D" d="M251.111,534.299c28.723-1.235,67.267,9.113,67.343,22.84
		c0.477,13.329-34.956,43.448-69.249,42.866c-35.515,1.509-70.338-28.655-69.882-39.111
		C178.792,545.565,222.567,533.597,251.111,534.299"/>
	<path clip-path="url(#SVGID_2_)" fill="#C7053D" d="M145.018,452.944c20.449,24.268,29.772,66.903,12.706,79.471
		c-16.147,9.596-55.356,5.646-83.227-33.791c-18.793-33.089-16.372-66.763-3.175-76.654
		C91.057,410.128,121.547,426.122,145.018,452.944"/>
	<path clip-path="url(#SVGID_2_)" fill="#C7053D" d="M353.113,445.251c-22.126,25.528-34.448,72.088-18.306,87.083
		c15.432,11.649,56.863,10.021,87.469-31.805c22.222-28.09,14.775-75.006,2.082-87.463c-18.856-14.367-45.925,4.019-71.245,32.177
		V445.251z"/>
	<path clip-path="url(#SVGID_2_)" fill="#1D1E1C" d="M483.263,151.318c-22.729,0-41.147,18.423-41.147,41.154
		c0,22.719,18.418,41.142,41.147,41.142c22.73,0,41.148-18.423,41.148-41.142C524.411,169.741,505.993,151.318,483.263,151.318
		 M483.263,226.763c-18.938,0-34.291-15.347-34.291-34.291c0-18.956,15.353-34.291,34.291-34.291s34.291,15.335,34.291,34.291
		C517.554,211.416,502.201,226.763,483.263,226.763"/>
	<path clip-path="url(#SVGID_2_)" fill="#1D1E1C" d="M465.946,169.943h23.724c7.892,0,12.88,5.478,12.88,12.116
		c0,5.195-2.095,9.075-6.964,11.052v0.118c4.745,1.231,6.094,5.845,6.408,10.295c0.184,2.769,0.124,7.939,1.852,10.412h-9.673
		c-1.178-2.781-1.054-7.016-1.545-10.543c-0.674-4.626-2.461-6.65-7.33-6.65h-9.679v17.193h-9.673V169.943z M475.619,189.845h10.596
		c4.319,0,6.656-1.857,6.656-6.295c0-4.236-2.337-6.094-6.656-6.094h-10.596V189.845z"/>
</g>
</svg>
